<svg version="1.1" id="Layer_1" xmlns="http://www.w3.org/2000/svg" xmlns:xlink="http://www.w3.org/1999/xlink" x="0px" y="0px"
	 viewBox="0 0 153 187" style="enable-background:new 0 0 153 187;" xml:space="preserve">
<style type="text/css">
	.st0{fill:#F9B447;}
	.st1{fill:#E8505B;}
	.st2{fill:#7BC7B3;}
</style>
<g>
	<title>Background Design</title>
	<path class="st0" d="M127.5,163.2c-8.5-4.9-18.4-7.7-29-7.7c-30.4,0-55.1,24.7-55.1,55.1v0.6h84.1C125.5,199.9,127.3,181.2,127.5,163.2z"/>
	<path class="st1" d="M75.1,21.8c-10.6,0-20.5,2.8-29,7.7c0.2,18,2,36.7,5.4,54.8h78.8v-0.6C130.2,46.5,105.5,21.8,75.1,21.8z"/>
	<path class="st2" d="M75.1,21.8c0,26.3,2.8,51.5,7.9,74.7h61.2c3.4-18.1,5.2-36.8,5.4-54.8c-10.6-4.9-22.6-7.7-35.3-7.7
		C95.6,33.9,75.1,21.8,75.1,21.8z"/>
</g>
</svg>
